<svg id="visual" viewBox="0 0 900 600" width="900" height="600" xmlns="http://www.w3.org/2000/svg" xmlns:xlink="http://www.w3.org/1999/xlink" version="1.1"><rect x="0" y="0" width="900" height="600" fill="#001122"></rect><path d="M0 379L21.5 388.8C43 398.7 86 418.3 128.8 422C171.7 425.7 214.3 413.3 257.2 404.2C300 395 343 389 385.8 397.7C428.7 406.3 471.3 429.7 514.2 438.5C557 447.3 600 441.7 642.8 434.7C685.7 427.7 728.3 419.3 771.2 428.7C814 438 857 465 878.5 478.5L900 492L900 601L878.5 601C857 601 814 601 771.2 601C728.3 601 685.7 601 642.8 601C600 601 557 601 514.2 601C471.3 601 428.7 601 385.8 601C343 601 300 601 257.2 601C214.3 601 171.7 601 128.8 601C86 601 43 601 21.5 601L0 601Z" fill="#121234" stroke-linecap="round" stroke-linejoin="miter"></path></svg>